<svg width="577" height="455" viewBox="0 0 577 455" fill="none" xmlns="http://www.w3.org/2000/svg">
<path d="M418.211 468.885C453.272 448.644 481.546 418.465 499.461 382.16C517.375 345.855 524.126 305.055 518.859 264.914C513.593 224.774 496.546 187.096 469.873 156.641C443.2 126.186 408.098 104.321 369.002 93.8096C362.445 92.0454 356.858 87.7488 353.47 81.8652C350.081 75.9815 349.169 68.9927 350.933 62.4362C352.697 55.8797 356.994 50.2926 362.877 46.9039C368.761 43.5153 375.75 42.6027 382.306 44.367C414.743 53.0522 445.148 68.0527 471.778 88.509C498.407 108.965 520.739 134.475 537.492 163.577C608.174 286.002 566.231 442.536 443.806 513.218C321.382 583.9 164.848 541.956 94.1658 419.532C77.3396 390.472 66.413 358.377 62.0122 325.087C57.6114 291.797 59.8229 257.966 68.5198 225.532C70.2702 218.971 74.5548 213.375 80.4313 209.974C86.3078 206.573 93.2947 205.646 99.8549 207.396C106.415 209.146 112.011 213.431 115.412 219.308C118.814 225.184 119.741 232.171 117.99 238.731C107.546 277.845 108.93 319.177 121.968 357.504C135.007 395.831 159.114 429.433 191.243 454.064C223.372 478.695 262.082 493.249 302.48 495.887C342.878 498.525 383.151 489.128 418.211 468.885Z" fill="url(#paint0_linear_1_3011)" fill-opacity="0.5"/>
<path d="M341.425 335.89C353.182 329.102 361.762 317.921 365.276 304.807C368.79 291.693 366.95 277.72 360.162 265.962C353.374 254.204 342.193 245.625 329.078 242.111C315.964 238.597 301.992 240.437 290.234 247.225C278.476 254.013 269.897 265.194 266.383 278.308C262.869 291.422 264.708 305.395 271.497 317.153C278.285 328.911 289.466 337.49 302.58 341.004C315.694 344.518 329.667 342.678 341.425 335.89Z" fill="url(#paint1_linear_1_3011)" fill-opacity="0.5"/>
<path d="M404.498 240.368C412.921 254.948 417.617 271.381 418.171 288.21C418.724 305.04 415.119 321.746 407.673 336.848C400.228 351.951 389.172 364.984 375.486 374.794C361.799 384.603 345.905 390.885 329.211 393.083C312.517 395.281 295.538 393.328 279.779 387.397C264.02 381.465 249.967 371.738 238.865 359.078C227.764 346.417 219.956 331.214 216.134 314.815C212.312 298.416 212.594 281.328 216.955 265.064C217.825 261.816 218.047 258.427 217.608 255.093C217.169 251.759 216.078 248.543 214.396 245.631C212.715 242.718 210.476 240.166 207.808 238.118C205.14 236.071 202.095 234.569 198.846 233.699C192.285 231.941 185.295 232.861 179.413 236.257C176.5 237.939 173.948 240.177 171.9 242.846C169.853 245.514 168.351 248.559 167.481 251.808C159.618 281.147 160.633 312.158 170.395 340.921C180.158 369.683 198.231 394.905 222.328 413.396C246.425 431.887 275.465 442.817 305.774 444.804C336.083 446.791 366.301 439.745 392.606 424.558C418.911 409.371 440.121 386.724 453.555 359.482C466.989 332.24 472.043 301.627 468.078 271.512C464.113 241.398 451.307 213.136 431.279 190.3C411.251 167.463 384.902 151.079 355.562 143.219C352.314 142.35 348.927 142.129 345.594 142.569C342.261 143.009 339.048 144.101 336.137 145.783C333.226 147.465 330.675 149.704 328.629 152.372C326.583 155.04 325.083 158.085 324.214 161.332C323.345 164.58 323.124 167.967 323.564 171.3C324.004 174.633 325.096 177.847 326.778 180.758C328.46 183.669 330.699 186.22 333.367 188.265C336.035 190.311 339.08 191.811 342.328 192.68C355.323 196.137 367.506 202.13 378.176 210.314C388.846 218.498 397.792 228.712 404.498 240.368Z" fill="url(#paint2_linear_1_3011)" fill-opacity="0.5"/>
<defs>
<linearGradient id="paint0_linear_1_3011" x1="443.806" y1="513.218" x2="221.654" y2="128.439" gradientUnits="userSpaceOnUse">
<stop stop-color="white"/>
<stop offset="1" stop-color="white" stop-opacity="0"/>
</linearGradient>
<linearGradient id="paint1_linear_1_3011" x1="341.425" y1="335.89" x2="290.234" y2="247.225" gradientUnits="userSpaceOnUse">
<stop stop-color="white"/>
<stop offset="1" stop-color="white" stop-opacity="0"/>
</linearGradient>
<linearGradient id="paint2_linear_1_3011" x1="392.606" y1="424.558" x2="257.771" y2="191.017" gradientUnits="userSpaceOnUse">
<stop stop-color="white"/>
<stop offset="1" stop-color="white" stop-opacity="0"/>
</linearGradient>
</defs>
</svg>
